<?xml version="1.0" encoding="UTF-8"?><svg id="_レイヤー_2" xmlns="http://www.w3.org/2000/svg" viewBox="0 0 362.84 26.3"><g id="_レイヤー_1-2"><g><path d="M22.26,0H7.74C2.82,0,0,1.62,0,4.43V21.84c0,2.82,2.82,4.43,7.74,4.43h14.51c4.92,0,7.74-1.62,7.74-4.43v-2.18h-2.18v2.18c0,1.72-1.66,2.46-5.56,2.46H7.74c-3.9,0-5.56-.73-5.56-2.46V4.43c0-1.72,1.66-2.46,5.56-2.46h14.51c3.9,0,5.56,.73,5.56,2.46v2.26h2.18v-2.26c0-2.82-2.82-4.43-7.74-4.43Z" style="fill:#fff;"/><path d="M74,21.86c0,1.72-1.66,2.46-5.56,2.46h-14.66c-3.9,0-5.56-.73-5.56-2.46V.19h-2.18V21.86c0,2.82,2.82,4.43,7.74,4.43h14.66c4.92,0,7.74-1.62,7.74-4.43V.19h-2.18V21.86Z" style="fill:#fff;"/><path d="M111.12,15l8.77,11.13h2.6l-8.77-11.13h1.46c4.67-.03,7.56-1.73,7.56-4.43V4.62c0-2.82-2.82-4.43-7.74-4.43h-22.03V26.13h2.34V2.01h19.68c3.74,0,5.56,.86,5.56,2.61v5.94c0,1.72-1.66,2.46-5.56,2.46h-5.09c-.24,0-.37,.29-.2,.46l1.41,1.51Z" style="fill:#fff;"/><rect x="142.04" y=".19" width="2.18" height="25.94" style="fill:#fff;"/><rect x="257.05" y=".19" width="2.18" height="25.94" style="fill:#fff;"/><path d="M186.82,.02h-15.5c-4.92,0-7.74,1.62-7.74,4.43V21.86c0,2.82,2.82,4.43,7.74,4.43h15.5c4.92,0,7.74-1.62,7.74-4.43V4.46c0-2.82-2.82-4.43-7.74-4.43Zm5.4,4.43V21.86c0,1.68-1.46,2.3-5.4,2.3h-15.5c-3.93,0-5.4-.62-5.4-2.3V4.46c0-1.68,1.46-2.3,5.4-2.3h15.5c3.93,0,5.4,.62,5.4,2.3Z" style="fill:#fff;"/><path d="M233.98,13.58l-17.84-2.55c-3.5-.52-4.16-1.31-4.16-2.6v-3.98c0-1.75,1.56-2.46,5.4-2.46h13.46c3.83,0,5.4,.71,5.4,2.46v.84h2.34v-.84c0-2.82-2.82-4.43-7.74-4.43h-13.46c-4.92,0-7.74,1.62-7.74,4.43v3.98c0,2.5,1.98,3.91,6.41,4.57l17.84,2.55c2.78,.38,3.26,.95,3.26,2v4.31c0,1.72-1.66,2.46-5.56,2.46h-14.36c-3.83,0-5.4-.71-5.4-2.46v-1.17h-2.35v1.17c0,2.82,2.82,4.43,7.74,4.43h14.36c4.92,0,7.74-1.62,7.74-4.43v-4.31c0-2.25-1.6-3.44-5.35-3.97Z" style="fill:#fff;"/><polygon points="272.94 1.97 287.15 1.97 287.15 26.13 289.33 26.13 289.33 1.97 303.54 1.97 303.54 .15 272.94 .15 272.94 1.97" style="fill:#fff;"/><polygon points="328.8 15.99 315.5 .19 312.88 .19 327.55 17.59 327.55 26.13 330.06 26.13 330.06 17.59 344.73 .19 342.1 .19 328.8 15.99" style="fill:#fff;"/><rect x="359.02" y="22.31" width="3.82" height="3.82" style="fill:#fff;"/></g></g></svg>