<?xml version="1.0" encoding="UTF-8"?><svg id="_レイヤー_2" xmlns="http://www.w3.org/2000/svg" viewBox="0 0 298.22 157.14"><g id="_レイヤー_1-2"><g><path d="M223.02,75.43c.15,8.55-.99,17.18-3.56,25.45-2.55,8.29-6.67,16.1-11.82,23.24-10.49,14.11-25.81,25.2-43.7,30.23-8.92,2.59-18.41,3.3-27.82,2.44-9.41-.94-18.7-3.77-27.13-8.24-16.86-9.09-29.71-24.65-36.23-42.24-3.36-8.78-4.8-18.21-4.6-27.43,.23-9.22,1.86-18.36,5.17-26.8,7.13-16.72,18.92-30.55,33.46-40.16C121.49,2.48,139.4-1.51,156.57,.51c8.58,1.07,16.95,3.61,24.63,7.48,7.67,3.9,14.63,9.1,20.54,15.29l-.42,.41c-6.05-5.95-13.09-10.86-20.73-14.45-7.66-3.56-15.9-5.77-24.26-6.54-16.69-1.28-33.91,2.56-47.63,12.14-3.39,2.41-6.69,4.95-9.63,7.88-1.56,1.37-2.84,3.01-4.18,4.59l-2,2.37c-.59,.85-1.18,1.7-1.73,2.57-4.59,6.86-7.77,14.54-9.4,22.43-3.38,15.74-1.39,32.02,4.94,45.92,6.44,13.95,17.59,25.14,30.69,32.39,6.59,3.61,13.73,6.14,21.14,7.72,7.41,1.58,15.22,2.26,23.03,1.48,15.56-1.6,31.12-8.93,42.4-21.1,11.14-12.22,17.87-28.68,18.46-45.67h.59Z" style="fill:#3e3a39;"/><path d="M298.2,40.59c-.83-10.81-15.04-16.38-36.38-14.63-1.43,.12-2.81-.37-3.93-1.26-1.51-1.19-3.41-1.91-5.49-1.89-3.1,.02-5.81,1.63-7.38,4.04-.92,1.41-2.45,2.29-4.08,2.7-6.85,1.72-14.08,4.03-21.59,6.99-13.06,5.14-57.77,30.8-57.77,30.8,0,0-58.9,40.14-93.9,49.3-5.47,1.43-11.66,2.76-17.88,3.67-1.79,.26-3.66-.23-4.96-1.49-2.11-2.04-4.99-3.29-8.16-3.27-2.55,.01-4.26,.67-6.08,2.05-4.21,3.18-11.47,3.26-15.61,0-2.07-1.64-3.5-3.78-4.07-6.51-2.4-11.39,18.71-23.85,29.22-30.49,.71-.45,2.05-1.29,2.55-1.23s1.66,.59,2.67,.66c1.8,.12,3.96-1.29,4.4-3.58,.14-.73,.33-1.21,.85-1.56,.57-.38,27.48-12.82,27.48-12.82,0,0-17.4,5.52-28.4,9.97-.79,.32-1.64,.26-2.39-.14-.6-.31-1.27-.49-1.99-.48-1.48,0-2.82,.77-3.59,1.92-.46,.69-.62,1.38-.75,2.27-.08,.55-.38,.98-.99,1.35C33.41,80.92-2.58,99.48,.15,115.9c1.28,7.75,9.01,13.31,22.67,15.95,1.58,.31,3.82,1.5,4.83,2.75,2.15,2.66,5.44,4.36,9.13,4.34,2.95-.02,5.62-1.13,7.66-2.95,1.46-1.3,3.32-2.11,5.27-2.35,9.45-1.15,19.98-3.68,31.39-7.96,25.62-9.61,46.69-26.88,79.52-48.21,25.88-16.81,39.16-27.03,59.36-33.76,7.66-2.55,15.42-4.4,22.78-5.57,1.63-.26,3.33,.03,4.69,.97,1.43,.98,3.15,1.56,5.02,1.55,2.33-.01,4.44-.92,6.02-2.39,1.06-.99,2.4-1.66,3.85-1.64,13.9,.26,23.23,3.93,22.03,10.82-2.6,14.97-21.56,24.77-37.42,32.81-.85,.43-1.93,.3-2.52-.45-.79-1.01-2.01-1.66-3.39-1.65-2.38,.01-4.29,1.95-4.28,4.32,0,.29-.54,1.69-1.43,1.99s-1.8,.61-2.34,.79c-3.15,1.07-10.91,3.71-11.63,4.1-.62,.34-.98,.71-1.01,1.01,0,.04,0,.09,.01,.13,.06,.23,.36,.4,.86,.46,0,0,6.13-1.89,14.91-5.17,.92-.34,1.91-.14,2.75,.36,.64,.39,1.39,.61,2.2,.61,2.04-.01,3.74-1.44,4.17-3.36,.07-.31,.43-1.09,.62-1.35,.07-.09,53.46-26.28,52.29-41.46Z" style="fill:#3e3a39;"/></g></g></svg>